<?xml version="1.0" encoding="UTF-8"?>
<!DOCTYPE svg PUBLIC "-//W3C//DTD SVG 1.1//EN" "http://www.w3.org/Graphics/SVG/1.1/DTD/svg11.dtd">
<!-- Creator: CorelDRAW 2019 (64 Bit) -->
<svg xmlns="http://www.w3.org/2000/svg" xml:space="preserve" width="116.876mm" height="64.0177mm" version="1.1" style="shape-rendering:geometricPrecision; text-rendering:geometricPrecision; image-rendering:optimizeQuality; fill-rule:evenodd; clip-rule:evenodd"
viewBox="0 0 12139.71 6649.38"
 xmlns:xlink="http://www.w3.org/1999/xlink"
 xmlns:xodm="http://www.corel.com/coreldraw/odm/2003">
 <defs>
  <style type="text/css">
   <![CDATA[
    .fil1 {fill:#A8CF45}
    .fil0 {fill:#373435;fill-rule:nonzero}
    .fil2 {fill:#08E48D;fill-rule:nonzero}
   ]]>
  </style>
 </defs>
 <g id="Camada_x0020_1">
  <metadata id="CorelCorpID_0Corel-Layer"/>
  <g id="_2803674193792">
   <path class="fil0" d="M747.86 2841.16l0 -267.56 288.97 0 0 267.56 -288.97 0zm-38.98 1682.93c-30.19,0 -63.9,-3.16 -100.77,-9.48 -37.22,-5.96 -71.27,-13.69 -101.82,-22.47l46 -231.4c28.79,5.28 54.42,8.08 76.19,8.08 32.3,0 56.89,-5.62 74.09,-17.55 17.2,-11.59 29.15,-28.79 35.46,-51.27 6.68,-22.82 9.84,-52.66 9.84,-89.53l0 -1120.08 288.97 0 0 1117.97c0,102.88 -12.29,185.04 -37.57,245.79 -24.93,61.1 -61.45,104.63 -109.55,130.61 -47.75,26.33 -108.15,39.32 -180.83,39.32z"/>
   <path id="1" class="fil0" d="M1587.76 3886.1c35.81,0 70.58,-8.43 104.64,-24.93 33.71,-16.86 62.14,-47.05 85.32,-90.24 22.83,-43.19 34.41,-101.13 34.41,-173.81l0 -606.73 288.97 0 0 1091.29 -269.31 0 0 -142.91c-38.62,54.07 -86.38,95.86 -143.61,125 -57.23,29.15 -119.73,43.54 -187.86,43.54 -121.48,0 -213.83,-32.3 -277.04,-96.57 -63.55,-64.61 -95.15,-155.19 -95.15,-271.77l0 -748.59 288.98 0 0 681.88c0,72.68 13.69,126.4 41.08,161.51 27.39,35.11 70.58,52.32 129.56,52.32z"/>
   <path id="2" class="fil0" d="M2881.28 3399.79c0,-70.23 -12.98,-122.9 -38.97,-159.06 -25.99,-36.16 -69.52,-54.07 -130.61,-54.07 -66.36,0 -120.79,23.88 -162.93,71.64 -42.13,47.39 -62.85,120.43 -62.5,218.39l0 604.99 -288.97 0 0 -1091.29 269.66 0 0 142.9c38.97,-54.77 87.07,-96.56 143.96,-124.99 56.88,-28.45 119.73,-42.85 188.2,-42.85 120.08,0 212.08,32.3 275.63,96.21 63.9,64.25 95.86,154.14 95.86,270.01l0 750 -289.33 0 0 -681.88z"/>
   <path id="3" class="fil0" d="M3849.33 2990.39l0 229.28 -203.65 0 0 531.95c0,31.25 2.46,55.13 6.67,71.28 4.57,16.15 12.3,27.39 23.88,34.06 11.24,6.32 28.1,9.83 50.92,9.83 35.46,0 73.74,-5.61 114.11,-16.49l35.82 223.31c-31.25,10.19 -66.37,18.26 -104.64,24.59 -38.63,5.97 -77.25,9.13 -116.23,9.13 -76.89,0 -136.94,-10.53 -180.13,-31.95 -43.19,-21.07 -74.08,-55.83 -91.99,-104.29 -18.26,-48.45 -27.39,-115.17 -27.39,-200.13l0 -551.27 -154.15 0 0 -229.28 154.15 0 0 -199.79 288.97 -204.71 0 404.5 203.65 0z"/>
   <path id="4" class="fil0" d="M3881.99 3529.36c0,-107.09 22.12,-203.3 66.01,-288.97 43.89,-86.03 107.1,-153.09 190.32,-201.9 82.86,-48.45 180.47,-73.04 293.19,-73.04 114.46,0 213.48,24.59 297.04,73.74 83.93,48.81 147.47,116.23 191.01,201.55 43.54,85.33 65.31,182.24 65.31,290.74 0,112.35 -22.12,212.08 -66.01,298.81 -43.89,86.73 -107.1,154.49 -190.32,203.65 -82.86,48.8 -181.18,73.38 -295.29,73.38 -113.77,0 -212.09,-24.59 -294.94,-73.38 -83.22,-49.16 -146.42,-117.28 -190.32,-204.36 -43.88,-87.07 -66.01,-187.15 -66.01,-300.21zm548.45 -328.31c-48.1,0 -91.29,13.35 -129.21,40.03 -37.92,27.04 -68.12,65.67 -89.89,116.23 -22.12,50.91 -33.01,110.6 -33.01,179.07 0,68.12 10.19,127.1 30.9,177.67 20.37,50.21 49.86,89.19 87.78,116.23 38.28,27.04 82.87,40.37 134.49,40.37 51.26,0 96.2,-13.34 135.17,-40.02 38.63,-26.69 68.82,-65.31 89.89,-116.23 21.43,-50.56 31.96,-110.6 31.96,-180.13 0,-66.36 -10.19,-124.64 -30.9,-174.86 -20.37,-49.86 -50.21,-88.83 -88.84,-116.57 -38.97,-27.73 -84.97,-41.79 -138.34,-41.79z"/>
   <path id="5" class="fil0" d="M5477.15 3171.21c-46,0 -82.87,8.08 -110.95,24.23 -28.1,16.15 -42.14,38.26 -42.14,66.36 0,21.42 6.67,39.32 20.02,54.07 13.34,14.74 36.86,28.09 70.92,40.02 34.06,11.94 81.46,23.18 142.56,33.36 138.34,23.53 240.52,62.85 306.53,117.97 65.65,55.13 98.66,132.73 98.66,232.8 0,70.23 -18.61,133.08 -55.48,188.9 -37.23,55.83 -90.59,99.71 -160.11,130.97 -69.53,31.61 -151.34,47.41 -245.44,47.41 -143.25,0 -255.97,-28.44 -338.13,-85.68 -82.51,-57.58 -132.02,-141.15 -149.23,-251.75l270.37 -43.19c12.29,57.58 35.81,101.13 69.87,130.27 34.41,29.15 83.56,43.54 147.12,43.54 55.13,0 99.02,-10.19 131.67,-30.9 33.01,-20.37 49.5,-48.81 49.5,-85.33 0,-19.66 -5.61,-36.86 -16.49,-50.91 -10.89,-14.05 -31.25,-26.34 -60.75,-37.58 -29.49,-10.87 -71.63,-20.36 -126.4,-28.79 -151.69,-23.17 -261.59,-65.65 -330.06,-127.46 -68.82,-61.79 -102.88,-143.96 -102.88,-246.83 0,-66.71 17.21,-124.65 52.32,-173.81 35.12,-49.5 85.33,-87.43 150.63,-113.77 65.67,-26.33 143.26,-39.68 233.15,-39.68 127.46,0 230.34,25.63 308.63,76.2 77.95,50.92 125.36,122.9 141.86,215.94l-275.63 40.38c-8.43,-40.74 -28.44,-71.98 -60.4,-93.75 -31.6,-22.12 -71.63,-33.01 -119.73,-33.01z"/>
   <path class="fil0" d="M2249.93 2434.25c59.09,0 107.65,-13.24 145.69,-40.07 38.38,-26.83 64.52,-62.49 79.13,-106.97l278.82 43.81c-37.36,102.56 -97.81,181.34 -181.35,235.69 -83.54,54.33 -185.77,81.51 -307.35,81.51 -114.11,0 -210.22,-22.41 -288.66,-67.59 -78.11,-45.16 -136.87,-108.67 -175.92,-190.51 -39.05,-81.85 -58.75,-177.96 -58.75,-287.98 0,-101.54 20.37,-194.6 61.13,-279.5 40.75,-84.9 100.52,-152.82 178.63,-203.08 78.45,-50.26 171.51,-75.74 279.5,-75.74 102.9,0 192.22,21.74 268.29,65.21 76.07,43.47 134.82,107.32 176.6,191.2 41.77,83.88 62.82,185.08 62.82,303.95l0 85.58 -742.37 0c6.79,78.11 29.54,138.56 68.6,181.01 39.05,42.45 91.01,63.5 155.2,63.5zm-222.79 -448.62l462.54 0c-6.45,-73.69 -29.88,-130.07 -69.62,-169.13 -39.73,-39.05 -92.37,-58.75 -158.25,-58.75 -62.14,0 -115.13,20.04 -158.25,60.11 -42.79,40.41 -68.6,96.11 -76.42,167.77z"/>
   <path id="1" class="fil0" d="M3884.46 2623.41l-260.82 0 0 -128.37 -4.07 0c-39.74,52.97 -85.59,92.04 -137.54,116.49 -52.3,24.45 -111.73,36.68 -178.63,36.68 -88.3,0 -167.09,-22.76 -236.37,-68.6 -69.28,-45.85 -123.61,-111.05 -162.67,-195.95 -39.05,-84.9 -58.75,-184.41 -58.75,-298.52 0,-107.32 19.02,-202.06 56.71,-283.91 37.69,-82.18 91.35,-145.35 160.29,-190.18 68.95,-44.83 148.42,-67.24 238.75,-67.24 61.8,0 118.18,11.89 169.46,35.33 51.62,23.78 95.09,57.39 131.09,101.2l2.71 0 0 -515.52 279.84 0 0 1458.61zm-513.49 -856.48c-75.73,0 -134.48,29.54 -176.25,88.97 -41.77,59.43 -62.49,140.25 -62.49,243.15 0,68.95 9.51,127.7 28.19,176.6 19.02,48.91 45.85,85.92 80.83,111.4 34.64,25.47 75.73,38.37 122.6,38.37 79.13,0 139.23,-28.52 180.67,-85.58 41.43,-57.05 62.14,-138.9 62.14,-245.88 0,-64.87 -9.85,-122.26 -29.88,-171.51 -19.69,-49.58 -47.54,-87.61 -83.54,-114.78 -35.66,-27.16 -76.42,-40.75 -122.26,-40.75z"/>
   <path id="2" class="fil0" d="M4417.3 2434.25c34.64,0 68.25,-8.14 101.2,-24.11 32.6,-16.3 60.11,-45.5 82.52,-87.28 22.07,-41.78 33.28,-97.8 33.28,-168.1l0 -586.84 279.5 0 0 1055.5 -260.48 0 0 -138.22c-37.35,52.3 -83.54,92.71 -138.89,120.9 -55.36,28.18 -115.81,42.11 -181.7,42.11 -117.51,0 -206.82,-31.24 -267.95,-93.4 -61.47,-62.49 -92.03,-150.1 -92.03,-262.85l0 -724.04 279.49 0 0 659.51c0,70.31 13.24,122.26 39.74,156.23 26.49,33.95 68.26,50.59 125.32,50.59z"/>
   <path id="3" class="fil0" d="M5489.44 1766.93c-72.33,0 -127.7,28.86 -166.07,86.94 -38.37,58.07 -57.73,138.9 -57.73,242.14 0,96.78 19.36,174.9 57.73,234.33 38.38,59.43 95.43,88.98 171.16,88.98 52.3,0 95.43,-17.33 129.73,-51.97 34.3,-34.97 56.71,-84.9 67.24,-149.77l274.4 47.55c-29.21,130.06 -83.88,226.52 -164.37,289 -80.82,62.83 -187.79,94.07 -320.92,94.07 -108.33,0 -200.03,-24.12 -275.08,-72 -75.4,-48.23 -132.11,-113.77 -169.8,-196.96 -37.69,-83.21 -56.71,-177.96 -56.71,-284.26 0,-109.35 19.69,-205.46 58.75,-288.33 39.05,-82.87 96.78,-147.39 173.2,-193.58 76.07,-46.18 168.44,-69.28 276.44,-69.28 120.89,0 221.08,27.85 300.55,83.55 79.46,55.69 133.8,141.27 163.01,256.74l-273.39 49.92c-11.21,-54.33 -32.94,-96.11 -65.2,-124.3 -32.26,-28.52 -73.02,-42.78 -122.94,-42.78z"/>
   <polygon class="fil1" points="-0,0 6649.38,0 6649.38,4448.06 6311.12,4448.06 6311.12,338.27 338.27,338.27 338.27,6311.12 6311.12,6311.12 6311.12,5832.4 6649.38,5832.4 6649.38,6649.38 -0,6649.38 "/>
   <path class="fil2" d="M891.96 5260.31c38.63,0 70.38,-8.66 95.25,-26.21 25.09,-17.54 42.19,-40.85 51.74,-69.93l182.29 28.64c-24.43,67.06 -63.95,118.57 -118.57,154.09 -54.62,35.52 -121.45,53.28 -200.94,53.28 -74.6,0 -137.43,-14.65 -188.72,-44.18 -51.07,-29.53 -89.48,-71.06 -115.01,-124.56 -25.53,-53.51 -38.41,-116.34 -38.41,-188.28 0,-66.39 13.33,-127.23 39.97,-182.73 26.64,-55.51 65.72,-99.91 116.79,-132.76 51.28,-32.86 112.11,-49.51 182.72,-49.51 67.28,0 125.67,14.21 175.4,42.63 49.73,28.42 88.14,70.16 115.46,125 27.31,54.83 41.07,121 41.07,198.71l0 55.95 -485.35 0c4.45,51.06 19.32,90.58 44.85,118.34 25.53,27.75 59.51,41.53 101.47,41.53zm-145.65 -293.3l302.4 0c-4.22,-48.18 -19.54,-85.04 -45.51,-110.57 -25.98,-25.54 -60.39,-38.41 -103.46,-38.41 -40.63,0 -75.26,13.1 -103.46,39.29 -27.97,26.42 -44.85,62.84 -49.96,109.68z"/>
   <path id="1" class="fil2" d="M1950.59 5383.97l-170.52 0 0 -83.93 -2.66 0c-25.98,34.64 -55.95,60.17 -89.92,76.16 -34.19,15.99 -73.05,23.97 -116.79,23.97 -57.73,0 -109.24,-14.87 -154.53,-44.85 -45.29,-29.97 -80.82,-72.59 -106.35,-128.1 -25.53,-55.51 -38.41,-120.57 -38.41,-195.17 0,-70.16 12.43,-132.11 37.08,-185.61 24.65,-53.73 59.72,-95.03 104.79,-124.34 45.08,-29.3 97.03,-43.96 156.09,-43.96 40.4,0 77.27,7.77 110.79,23.09 33.75,15.54 62.18,37.52 85.7,66.16l1.78 0 0 -337.04 182.95 0 0 953.61zm-335.7 -559.95c-49.51,0 -87.92,19.31 -115.23,58.17 -27.32,38.86 -40.86,91.7 -40.86,158.97 0,45.08 6.22,83.49 18.44,115.46 12.43,31.97 29.97,56.17 52.84,72.82 22.64,16.66 49.51,25.09 80.15,25.09 51.73,0 91.03,-18.65 118.12,-55.95 27.09,-37.3 40.63,-90.81 40.63,-160.75 0,-42.41 -6.44,-79.94 -19.54,-112.13 -12.88,-32.42 -31.09,-57.28 -54.62,-75.04 -23.31,-17.76 -49.95,-26.64 -79.93,-26.64z"/>
   <path id="2" class="fil2" d="M2328.93 5260.31c22.64,0 44.63,-5.33 66.16,-15.77 21.31,-10.66 39.3,-29.76 53.95,-57.07 14.44,-27.31 21.76,-63.94 21.76,-109.9l0 -383.67 182.73 0 0 690.07 -170.3 0 0 -90.37c-24.42,34.19 -54.61,60.62 -90.81,79.04 -36.19,18.43 -75.71,27.52 -118.78,27.52 -76.82,0 -135.22,-20.42 -175.17,-61.05 -40.19,-40.85 -60.17,-98.13 -60.17,-171.85l0 -473.37 182.72 0 0 431.19c0,45.95 8.66,79.93 25.98,102.13 17.33,22.2 44.63,33.08 81.93,33.08z"/>
   <path id="3" class="fil2" d="M3046.53 4824.02c-47.29,0 -83.48,18.87 -108.57,56.84 -25.08,37.96 -37.75,90.81 -37.75,158.31 0,63.28 12.66,114.35 37.75,153.21 25.09,38.85 62.39,58.17 111.91,58.17 34.19,0 62.39,-11.32 84.81,-33.98 22.43,-22.86 37.08,-55.51 43.97,-97.91l179.4 31.08c-19.1,85.04 -54.84,148.09 -107.46,188.95 -52.85,41.08 -122.78,61.5 -209.82,61.5 -70.83,0 -130.77,-15.76 -179.84,-47.06 -49.3,-31.53 -86.37,-74.38 -111.01,-128.78 -24.65,-54.4 -37.08,-116.34 -37.08,-185.84 0,-71.49 12.88,-134.33 38.41,-188.5 25.53,-54.18 63.28,-96.36 113.24,-126.56 49.73,-30.19 110.12,-45.29 180.73,-45.29 79.04,0 144.54,18.21 196.5,54.61 51.95,36.42 87.48,92.37 106.57,167.85l-178.73 32.65c-7.33,-35.52 -21.54,-62.84 -42.64,-81.27 -21.09,-18.64 -47.74,-27.97 -80.37,-27.97z"/>
   <path id="4" class="fil2" d="M4052.77 5383.97l-180.29 0c-9.1,-19.98 -16.42,-45.3 -22.2,-76.16 -61.06,61.73 -132.56,92.36 -214.48,92.36 -45.08,0 -84.82,-8.65 -119.01,-25.98 -34.41,-17.31 -60.84,-41.73 -79.49,-73.27 -18.64,-31.31 -27.97,-67.28 -27.97,-107.46 0,-61.27 19.98,-109.9 59.95,-145.87 39.74,-35.97 101.46,-60.39 184.72,-73.49 83.26,-12.88 141.66,-25.53 175.63,-37.75l0 -12.88c0,-40.4 -9.99,-67.94 -29.76,-83.03 -19.76,-14.88 -48.84,-22.43 -87.48,-22.43 -30.19,0 -55.73,6.88 -75.93,20.87 -20.43,13.76 -35.97,35.74 -46.18,65.72l-166.52 -25.31c18.2,-69.49 51.95,-120.33 101.46,-152.53 49.3,-32.42 115.46,-48.62 198.27,-48.62 67.28,0 121.9,8.65 164.3,25.75 42.19,17.1 73.5,44.41 93.92,81.71 20.43,37.3 30.64,85.92 30.64,146.31l0 281.53c0,33.08 2.44,60.62 7.1,82.6 4.89,22.21 15.77,51.51 33.31,87.92zm-363.02 -295.96c-65.05,13.1 -97.69,44.62 -97.69,95.03 0,28.19 7.99,49.73 24.2,65.05 15.99,15.09 39.08,22.64 68.82,22.64 29.98,0 57.5,-7.55 82.6,-22.64 17.31,-10.44 30.41,-21.31 38.86,-32.86 8.43,-11.54 14.43,-27.09 17.76,-46.63 3.55,-19.54 5.33,-46.84 5.33,-81.92l0 -33.08c-32.2,11.54 -78.83,23.09 -139.88,34.41z"/>
   <path id="5" class="fil2" d="M4319.21 5573.8c31.31,0 55.06,-2.88 71.26,-8.65 16.21,-5.78 24.43,-15.55 24.43,-28.86 0,-11.77 -4.89,-20.65 -14.44,-26.42 -9.55,-5.78 -21.31,-8.88 -35.74,-8.88 -13.33,0 -26.64,1.56 -39.75,4.66l26.21 -109.24c-59.06,-7.99 -109.02,-28.2 -150.09,-60.84 -40.86,-32.86 -71.49,-74.6 -91.92,-125.67 -20.43,-50.84 -30.64,-108.13 -30.64,-171.4 0,-71.49 12.88,-134.33 38.41,-188.5 25.53,-54.18 63.28,-96.36 113.24,-126.56 49.73,-30.19 110.12,-45.29 180.73,-45.29 79.04,0 144.54,18.21 196.5,54.61 51.95,36.42 87.48,92.37 106.57,167.85l-178.73 32.65c-7.33,-35.52 -21.54,-62.84 -42.64,-81.27 -21.09,-18.64 -47.74,-27.97 -80.37,-27.97 -47.29,0 -83.48,18.87 -108.57,56.84 -25.08,37.96 -37.75,90.81 -37.75,158.31 0,63.28 12.66,114.35 37.75,153.21 25.09,38.85 62.39,58.17 111.91,58.17 34.19,0 62.39,-11.32 84.81,-33.98 22.43,-22.86 37.08,-55.51 43.97,-97.91l179.4 31.08c-17.76,79.04 -49.96,139 -96.8,179.85 -46.85,41.07 -108.35,64.17 -184.73,69.27l-9.77 40.41c45.96,3.55 80.15,13.54 102.81,30.19 22.41,16.65 33.75,41.07 33.75,73.27 0,22.87 -8.44,43.52 -25.09,61.72 -16.65,18.21 -42.18,32.65 -76.37,43.3 -34.19,10.66 -76.6,15.99 -126.78,15.99 -12.65,0 -29.3,-0.89 -49.73,-2.44 -20.65,-1.34 -38.41,-3.12 -53.07,-4.66l9.1 -87.92c25.09,3.55 49.3,5.1 72.17,5.1z"/>
   <path id="6" class="fil2" d="M5418.48 5383.97l-180.29 0c-9.1,-19.98 -16.42,-45.3 -22.2,-76.16 -61.06,61.73 -132.56,92.36 -214.48,92.36 -45.08,0 -84.82,-8.65 -119.01,-25.98 -34.41,-17.31 -60.84,-41.73 -79.49,-73.27 -18.64,-31.31 -27.97,-67.28 -27.97,-107.46 0,-61.27 19.98,-109.9 59.95,-145.87 39.74,-35.97 101.46,-60.39 184.72,-73.49 83.26,-12.88 141.66,-25.53 175.63,-37.75l0 -12.88c0,-40.4 -9.99,-67.94 -29.76,-83.03 -19.76,-14.88 -48.84,-22.43 -87.48,-22.43 -30.19,0 -55.73,6.88 -75.93,20.87 -20.43,13.76 -35.97,35.74 -46.18,65.72l-166.52 -25.31c18.2,-69.49 51.95,-120.33 101.46,-152.53 49.3,-32.42 115.46,-48.62 198.27,-48.62 67.28,0 121.9,8.65 164.3,25.75 42.19,17.1 73.5,44.41 93.92,81.71 20.43,37.3 30.64,85.92 30.64,146.31l0 281.53c0,33.08 2.44,60.62 7.1,82.6 4.89,22.21 15.77,51.51 33.31,87.92zm-363.02 -295.96c-65.05,13.1 -97.69,44.62 -97.69,95.03 0,28.19 7.99,49.73 24.2,65.05 15.99,15.09 39.08,22.64 68.82,22.64 29.98,0 57.5,-7.55 82.6,-22.64 17.31,-10.44 30.41,-21.31 38.86,-32.86 8.43,-11.54 14.43,-27.09 17.76,-46.63 3.55,-19.54 5.33,-46.84 5.33,-81.92l0 -33.08c-32.2,11.54 -78.83,23.09 -139.88,34.41zm156.08 -495.56c-18.64,0 -36.19,-2.67 -52.62,-7.55 -16.65,-5.11 -34.86,-12 -54.61,-21.1 -16.66,-7.55 -30.42,-12.88 -41.3,-16.43 -11.1,-3.32 -21.54,-5.1 -31.09,-5.1 -13.32,0 -23.31,4.44 -29.75,13.32 -6.67,8.88 -9.77,23.09 -9.77,42.63l0 1.34 -93.69 0 0 -3.33c0,-57.73 10.21,-101.25 30.41,-131 20.43,-29.75 52.17,-44.62 95.03,-44.62 17.76,0 33.96,2.21 48.18,6.88 14.21,4.45 30.41,11.1 48.17,19.77 16.88,8.22 31.31,14.21 43.29,17.98 11.77,3.55 24.43,5.56 37.97,5.56 12.2,0 22.2,-4.89 29.98,-14.44 7.77,-9.55 11.76,-23.54 11.76,-42.18l93.48 0c0,60.17 -9.99,105.01 -30.19,134.32 -20.21,29.31 -51.95,43.97 -95.26,43.97z"/>
   <path id="7" class="fil2" d="M5444.22 5034.73c0,-67.72 13.99,-128.56 41.74,-182.73 27.75,-54.4 67.71,-96.8 120.34,-127.66 52.39,-30.64 114.12,-46.18 185.39,-46.18 72.38,0 134.99,15.54 187.83,46.63 53.06,30.86 93.25,73.49 120.78,127.44 27.54,53.96 41.3,115.24 41.3,183.85 0,71.05 -13.99,134.1 -41.74,188.95 -27.75,54.84 -67.71,97.69 -120.33,128.78 -52.4,30.86 -114.57,46.4 -186.73,46.4 -71.93,0 -134.1,-15.54 -186.49,-46.4 -52.63,-31.09 -92.59,-74.16 -120.34,-129.22 -27.75,-55.06 -41.74,-118.34 -41.74,-189.83zm346.8 -207.6c-30.41,0 -57.72,8.43 -81.7,25.31 -23.98,17.1 -43.07,41.52 -56.84,73.49 -13.99,32.2 -20.88,69.94 -20.88,113.24 0,43.07 6.44,80.37 19.55,112.34 12.87,31.75 31.52,56.4 55.51,73.5 24.19,17.1 52.39,25.53 85.04,25.53 32.41,0 60.84,-8.43 85.47,-25.31 24.43,-16.87 43.52,-41.3 56.85,-73.49 13.53,-31.97 20.2,-69.94 20.2,-113.9 0,-41.96 -6.44,-78.83 -19.54,-110.57 -12.88,-31.53 -31.75,-56.18 -56.17,-73.72 -24.65,-17.54 -53.73,-26.42 -87.49,-26.42z"/>
   <path id="8" class="fil2" d="M6756.64 5309.81l-3.33 0 0 338.15 -182.72 0 0 -954.06 170.52 0 0 101.47 3.32 0c23.76,-39.96 54.62,-69.49 92.59,-88.59 37.97,-19.09 78.6,-28.64 121.9,-28.64 55.51,0 105.24,15.09 149.42,45.29 43.96,30.2 78.6,72.83 103.68,128.34 25.09,55.51 37.75,120.11 37.75,194.05 0,72.83 -12.43,135.88 -37.08,189.61 -24.87,53.51 -59.06,94.36 -103.23,122.56 -43.97,28.2 -94.81,42.18 -152.54,42.18 -44.62,0 -81.7,-6.43 -111.45,-19.54 -29.76,-12.87 -59.29,-36.63 -88.82,-70.83zm158.09 -485.79c-47.29,0 -86.15,18.21 -116.79,54.84 -30.41,36.63 -45.73,95.03 -45.73,175.4 0,41.07 6.21,76.82 19.09,107.02 12.88,29.98 30.86,53.07 54.4,69.27 23.32,15.99 50.84,23.98 82.6,23.98 50.18,0 88.59,-18.65 114.78,-55.74 26.21,-37.07 39.3,-90.8 39.3,-161.63 0,-67.06 -13.1,-119.46 -39.3,-156.98 -26.2,-37.53 -62.38,-56.17 -108.34,-56.17z"/>
   <path id="9" class="fil2" d="M7647.64 4843.33c-46.41,0 -81.7,18.65 -105.9,55.95 -24.43,37.3 -36.64,90.37 -36.64,158.75l0 325.94 -182.72 0 0 -690.07 169.19 0 0 97.47 2.66 0c24.2,-40.4 49.96,-69.27 77.27,-86.81 27.31,-17.53 60.39,-26.41 99.03,-26.41 23.31,0 44.62,2.89 63.94,8.22 19.32,5.33 38.41,12.87 57.07,22.43l-58.62 162.52c-9.55,-6.44 -22.86,-12.66 -39.96,-18.87 -17.1,-5.99 -32.2,-9.11 -45.3,-9.11z"/>
   <path id="10" class="fil2" d="M8454.49 5383.97l-180.29 0c-9.1,-19.98 -16.42,-45.3 -22.2,-76.16 -61.06,61.73 -132.56,92.36 -214.48,92.36 -45.08,0 -84.82,-8.65 -119.01,-25.98 -34.41,-17.31 -60.84,-41.73 -79.49,-73.27 -18.64,-31.31 -27.97,-67.28 -27.97,-107.46 0,-61.27 19.98,-109.9 59.95,-145.87 39.74,-35.97 101.46,-60.39 184.72,-73.49 83.26,-12.88 141.66,-25.53 175.63,-37.75l0 -12.88c0,-40.4 -9.99,-67.94 -29.76,-83.03 -19.76,-14.88 -48.84,-22.43 -87.48,-22.43 -30.19,0 -55.73,6.88 -75.93,20.87 -20.43,13.76 -35.97,35.74 -46.18,65.72l-166.52 -25.31c18.2,-69.49 51.95,-120.33 101.46,-152.53 49.3,-32.42 115.46,-48.62 198.27,-48.62 67.28,0 121.9,8.65 164.3,25.75 42.19,17.1 73.5,44.41 93.92,81.71 20.43,37.3 30.64,85.92 30.64,146.31l0 281.53c0,33.08 2.44,60.62 7.1,82.6 4.89,22.21 15.77,51.51 33.31,87.92zm-363.02 -295.96c-65.05,13.1 -97.69,44.62 -97.69,95.03 0,28.19 7.99,49.73 24.2,65.05 15.99,15.09 39.08,22.64 68.82,22.64 29.98,0 57.5,-7.55 82.6,-22.64 17.31,-10.44 30.41,-21.31 38.86,-32.86 8.43,-11.54 14.43,-27.09 17.76,-46.63 3.55,-19.54 5.33,-46.84 5.33,-81.92l0 -33.08c-32.2,11.54 -78.83,23.09 -139.88,34.41z"/>
   <path id="11" class="fil2" d="M9253.12 4693.9l0 144.99 -128.78 0 0 336.38c0,19.76 1.55,34.86 4.22,45.07 2.89,10.21 7.77,17.31 15.09,21.53 7.1,4 17.76,6.22 32.2,6.22 22.43,0 46.63,-3.55 72.16,-10.44l22.64 141.21c-19.76,6.44 -41.96,11.55 -66.16,15.55 -24.42,3.77 -48.84,5.76 -73.49,5.76 -48.62,0 -86.59,-6.66 -113.9,-20.2 -27.31,-13.32 -46.84,-35.3 -58.17,-65.94 -11.55,-30.64 -17.33,-72.83 -17.33,-126.56l0 -348.58 -97.47 0 0 -144.99 97.47 0 0 -126.33 182.73 -129.44 0 255.77 128.78 0z"/>
   <path id="12" class="fil2" d="M9290.42 5034.73c0,-67.72 13.99,-128.56 41.74,-182.73 27.75,-54.4 67.71,-96.8 120.34,-127.66 52.39,-30.64 114.12,-46.18 185.39,-46.18 72.38,0 134.99,15.54 187.83,46.63 53.06,30.86 93.25,73.49 120.78,127.44 27.54,53.96 41.3,115.24 41.3,183.85 0,71.05 -13.99,134.1 -41.74,188.95 -27.75,54.84 -67.71,97.69 -120.33,128.78 -52.4,30.86 -114.57,46.4 -186.73,46.4 -71.93,0 -134.1,-15.54 -186.49,-46.4 -52.63,-31.09 -92.59,-74.16 -120.34,-129.22 -27.75,-55.06 -41.74,-118.34 -41.74,-189.83zm346.8 -207.6c-30.41,0 -57.72,8.43 -81.7,25.31 -23.98,17.1 -43.07,41.52 -56.84,73.49 -13.99,32.2 -20.88,69.94 -20.88,113.24 0,43.07 6.44,80.37 19.55,112.34 12.87,31.75 31.52,56.4 55.51,73.5 24.19,17.1 52.39,25.53 85.04,25.53 32.41,0 60.84,-8.43 85.47,-25.31 24.43,-16.87 43.52,-41.3 56.85,-73.49 13.53,-31.97 20.2,-69.94 20.2,-113.9 0,-41.96 -6.44,-78.83 -19.54,-110.57 -12.88,-31.53 -31.75,-56.18 -56.17,-73.72 -24.65,-17.54 -53.73,-26.42 -87.49,-26.42z"/>
   <path id="13" class="fil2" d="M10721.39 5383.97l-170.52 0 0 -83.93 -2.66 0c-25.98,34.64 -55.95,60.17 -89.92,76.16 -34.19,15.99 -73.05,23.97 -116.79,23.97 -57.73,0 -109.24,-14.87 -154.53,-44.85 -45.29,-29.97 -80.82,-72.59 -106.35,-128.1 -25.53,-55.51 -38.41,-120.57 -38.41,-195.17 0,-70.16 12.43,-132.11 37.08,-185.61 24.65,-53.73 59.72,-95.03 104.79,-124.34 45.08,-29.3 97.03,-43.96 156.09,-43.96 40.4,0 77.27,7.77 110.79,23.09 33.75,15.54 62.18,37.52 85.7,66.16l1.78 0 0 -337.04 182.95 0 0 953.61zm-335.7 -559.95c-49.51,0 -87.92,19.31 -115.23,58.17 -27.32,38.86 -40.86,91.7 -40.86,158.97 0,45.08 6.22,83.49 18.44,115.46 12.43,31.97 29.97,56.17 52.84,72.82 22.64,16.66 49.51,25.09 80.15,25.09 51.73,0 91.03,-18.65 118.12,-55.95 27.09,-37.3 40.63,-90.81 40.63,-160.75 0,-42.41 -6.44,-79.94 -19.54,-112.13 -12.88,-32.42 -31.09,-57.28 -54.62,-75.04 -23.31,-17.76 -49.95,-26.64 -79.93,-26.64z"/>
   <path id="14" class="fil2" d="M10794 5034.73c0,-67.72 13.99,-128.56 41.74,-182.73 27.75,-54.4 67.71,-96.8 120.34,-127.66 52.39,-30.64 114.12,-46.18 185.39,-46.18 72.38,0 134.99,15.54 187.83,46.63 53.06,30.86 93.25,73.49 120.78,127.44 27.54,53.96 41.3,115.24 41.3,183.85 0,71.05 -13.99,134.1 -41.74,188.95 -27.75,54.84 -67.71,97.69 -120.33,128.78 -52.4,30.86 -114.57,46.4 -186.73,46.4 -71.93,0 -134.1,-15.54 -186.49,-46.4 -52.63,-31.09 -92.59,-74.16 -120.34,-129.22 -27.75,-55.06 -41.74,-118.34 -41.74,-189.83zm346.8 -207.6c-30.41,0 -57.72,8.43 -81.7,25.31 -23.98,17.1 -43.07,41.52 -56.84,73.49 -13.99,32.2 -20.88,69.94 -20.88,113.24 0,43.07 6.44,80.37 19.55,112.34 12.87,31.75 31.52,56.4 55.51,73.5 24.19,17.1 52.39,25.53 85.04,25.53 32.41,0 60.84,-8.43 85.47,-25.31 24.43,-16.87 43.52,-41.3 56.85,-73.49 13.53,-31.97 20.2,-69.94 20.2,-113.9 0,-41.96 -6.44,-78.83 -19.54,-110.57 -12.88,-31.53 -31.75,-56.18 -56.17,-73.72 -24.65,-17.54 -53.73,-26.42 -87.49,-26.42z"/>
   <path id="15" class="fil2" d="M11832.65 4808.25c-29.08,0 -52.4,5.11 -70.16,15.32 -17.76,10.21 -26.64,24.2 -26.64,41.96 0,13.54 4.22,24.87 12.65,34.19 8.44,9.33 23.32,17.76 44.85,25.31 21.54,7.55 51.52,14.66 90.15,21.1 87.48,14.87 152.09,39.74 193.83,74.6 41.53,34.86 62.39,83.93 62.39,147.2 0,44.4 -11.77,84.15 -35.09,119.45 -23.53,35.3 -57.28,63.06 -101.24,82.82 -43.96,19.98 -95.69,29.97 -155.2,29.97 -90.58,0 -161.86,-17.98 -213.81,-54.17 -52.17,-36.42 -83.48,-89.25 -94.36,-159.2l170.97 -27.31c7.77,36.42 22.64,63.94 44.19,82.37 21.75,18.44 52.84,27.54 93.02,27.54 34.86,0 62.61,-6.44 83.26,-19.54 20.88,-12.88 31.31,-30.86 31.31,-53.95 0,-12.44 -3.55,-23.32 -10.43,-32.2 -6.89,-8.88 -19.77,-16.65 -38.42,-23.75 -18.64,-6.89 -45.29,-12.88 -79.93,-18.21 -95.91,-14.66 -165.41,-41.52 -208.7,-80.6 -43.52,-39.08 -65.05,-91.03 -65.05,-156.08 0,-42.18 10.87,-78.81 33.08,-109.9 22.2,-31.31 53.95,-55.29 95.25,-71.94 41.52,-16.65 90.58,-25.08 147.43,-25.08 80.59,0 145.64,16.2 195.16,48.17 49.29,32.2 79.26,77.71 89.7,136.56l-174.29 25.53c-5.33,-25.76 -17.99,-45.51 -38.19,-59.29 -19.98,-13.98 -45.3,-20.87 -75.71,-20.87z"/>
  </g>
 </g>
</svg>
